<svg fill="none" xmlns="http://www.w3.org/2000/svg" viewBox="0 0 48 48"><g clip-path="url(#audi__a)"><path d="M39.417 16a8.65 8.65 0 0 0-5.14 1.695A8.644 8.644 0 0 0 29.14 16c-1.913 0-3.69.629-5.139 1.695a8.644 8.644 0 0 0-10.278 0A8.522 8.522 0 0 0 8.583 16C3.854 16 0 19.8 0 24.474s3.854 8.474 8.583 8.474c1.914 0 3.69-.63 5.14-1.695a8.644 8.644 0 0 0 5.138 1.695c1.913 0 3.69-.63 5.139-1.695a8.523 8.523 0 0 0 5.139 1.695c1.913 0 3.69-.63 5.139-1.695a8.523 8.523 0 0 0 5.139 1.695c4.729 0 8.583-3.8 8.583-8.474C48 19.799 44.146 16 39.417 16Zm-5.14 12.847a6.587 6.587 0 0 1-1.666-4.373c0-1.668.628-3.198 1.667-4.374a6.587 6.587 0 0 1 1.667 4.374 6.587 6.587 0 0 1-1.667 4.373Zm-10.277 0a6.587 6.587 0 0 1-1.667-4.373c0-1.668.628-3.198 1.667-4.374a6.587 6.587 0 0 1 1.667 4.374A6.587 6.587 0 0 1 24 28.847Zm-10.278 0a6.587 6.587 0 0 1-1.667-4.373c0-1.668.628-3.198 1.667-4.374a6.587 6.587 0 0 1 1.668 4.374c.027 1.667-.63 3.198-1.668 4.373ZM1.777 24.474c0-3.69 3.061-6.697 6.806-6.697a6.77 6.77 0 0 1 3.8 1.148 8.315 8.315 0 0 0-2.105 5.549c0 2.132.793 4.073 2.105 5.549-1.094.71-2.378 1.148-3.8 1.148-3.745 0-6.806-3.007-6.806-6.697Zm13.285 5.549a8.315 8.315 0 0 0 2.104-5.55 8.315 8.315 0 0 0-2.104-5.548c1.093-.71 2.378-1.148 3.799-1.148 1.421 0 2.706.41 3.8 1.148-1.313 1.476-2.133 3.417-2.133 5.549 0 2.132.793 4.073 2.133 5.549-1.094.71-2.379 1.148-3.8 1.148a6.987 6.987 0 0 1-3.8-1.148Zm10.277 0c1.313-1.476 2.133-3.417 2.133-5.55a8.205 8.205 0 0 0-2.133-5.548c1.094-.71 2.379-1.148 3.8-1.148 1.421 0 2.706.41 3.8 1.148-1.313 1.476-2.133 3.417-2.133 5.549 0 2.132.793 4.073 2.132 5.549-1.093.71-2.378 1.148-3.799 1.148-1.421 0-2.706-.438-3.8-1.148Zm14.078 1.148a6.766 6.766 0 0 1-3.8-1.148c1.312-1.476 2.132-3.417 2.132-5.55a8.205 8.205 0 0 0-2.132-5.548c1.094-.71 2.378-1.148 3.8-1.148 3.745 0 6.806 3.007 6.806 6.697s-3.061 6.697-6.806 6.697Z" fill="#000"/></g><defs><clipPath id="audi__a"><path fill="#fff" d="M0 0h48v48H0z"/></clipPath></defs></svg>