<svg fill="none" xmlns="http://www.w3.org/2000/svg" viewBox="0 0 48 48"><path fill-rule="evenodd" clip-rule="evenodd" d="M15.988 15.988h15.024v3.17h15.575l-4.411 8.684H31.012v3.17H15.988v-3.17H.414l4.41-8.684h11.164v-3.17Zm1.93 1.93h11.164v3.17h12.405l-2.343 4.686H29.082v3.308H17.918v-3.308H5.513l2.343-4.686h10.062v-3.17Z" fill="gray"/><path fill-rule="evenodd" clip-rule="evenodd" d="M31.012 15.575c.228 0 .413.185.413.413v2.757h15.162a.413.413 0 0 1 .368.6l-4.41 8.684a.413.413 0 0 1-.369.226h-10.75v2.757a.413.413 0 0 1-.414.413H15.988a.413.413 0 0 1-.413-.413v-2.757H.413a.414.414 0 0 1-.368-.6l4.41-8.684a.414.414 0 0 1 .369-.226h10.75v-2.757c0-.228.186-.413.414-.413h15.024ZM4.824 19.159h11.164v-3.17h15.024v3.17h15.575l-4.411 8.683H31.012v3.17H15.988v-3.17H.413l4.411-8.683Zm24.258 2.343a.413.413 0 0 1-.413-.414v-2.757H18.33v2.757a.413.413 0 0 1-.413.414H8.112l-1.93 3.859h11.736c.228 0 .413.185.413.413v2.895H28.67v-2.895c0-.228.185-.413.413-.413h9.806l1.93-3.86H29.082Zm12.405-.414-2.343 4.686H29.082v3.308H17.918v-3.308H5.513l2.343-4.686h10.062v-3.17h11.164v3.17h12.405Z" fill="#3E4445"/><path d="m4.824 19.158 3.032 1.93h10.062l-1.93-1.93H4.824Z" fill="#CBCED6"/><path d="m15.988 15.988 1.93 1.93v3.17l-1.93-1.93v-3.17Z" fill="#5C5F60"/><path d="m15.988 15.988 1.93 1.93h11.164l1.93-1.93H15.988Z" fill="#CBD0D3"/><path d="m31.012 19.158-1.93 1.93v-3.17l1.93-1.93v3.17Z" fill="#ADB3B3"/><path d="m31.012 19.158-1.93 1.93h12.405l5.1-1.93H31.012Z" fill="#E1E4E8"/><path d="m42.176 27.842-3.032-2.068 2.343-4.686 5.1-1.93-4.411 8.684Z" fill="#A1A6A1"/><path d="m42.176 27.842-3.032-2.068H29.082l1.93 2.068h11.164Z" fill="#A1A6A1"/><path d="m31.012 31.012-1.93-1.93v-3.308l1.93 2.068v3.17Z" fill="#515552"/><path d="m31.012 31.012-1.93-1.93H17.918l-1.93 1.93h15.024Z" fill="#F8EFDE"/><path d="m31.012 31.012-1.93-1.93H23.5v1.93h7.512Z" fill="#909A95"/><path d="m15.988 27.842 1.93-2.068v3.308l-1.93 1.93v-3.17Z" fill="#5C5F60"/><path d="m15.988 27.842 1.93-2.068H5.513l-5.1 2.068h15.575Z" fill="#BDC5C1"/><path d="m4.893 19.158 2.963 1.93-2.343 4.686-5.1 2.068 4.48-8.684Z" fill="#A6AAAA"/><path fill-rule="evenodd" clip-rule="evenodd" d="M17.918 17.918h11.164v3.17h12.405l-2.343 4.686H29.082v3.308H17.918v-3.308H5.513l2.343-4.686h10.062v-3.17Z" fill="url(#chevrolet__a)"/><path d="M23.5 17.918h-5.582v3.17H7.856l-2.343 4.686h12.405v3.308H23.5V17.918Z" fill="url(#chevrolet__b)"/><path fill-rule="evenodd" clip-rule="evenodd" d="M17.504 17.505H23.5v.826h-5.169v2.757h-.827v-3.584Zm11.992.55v3.033h-.827v-3.032h.827ZM7.624 20.629l.74.37-2.182 4.363h12.15v3.308H23.5v.827h-5.996v-3.308H4.844l2.78-5.56Zm34.233.645-2.458 4.915h-9.903v2.894h-.827v-3.721h10.22l2.228-4.458.74.37Z" fill="#F8DF81"/><path fill-rule="evenodd" clip-rule="evenodd" d="M29.082 17.091c.457 0 .827.37.827.827v2.343h11.578a.827.827 0 0 1 .74 1.197l-2.344 4.686a.827.827 0 0 1-.74.457H29.91v2.481c0 .457-.37.827-.827.827H17.918a.827.827 0 0 1-.827-.827v-2.48H5.513a.827.827 0 0 1-.74-1.198l2.344-4.686a.827.827 0 0 1 .74-.457h9.234v-2.343c0-.457.37-.827.827-.827h11.164Zm0 .827v3.17h12.405l-2.343 4.686H29.082v3.308H17.918v-3.308H5.513l2.343-4.686h10.062v-3.17h11.164Z" fill="#EEE6DA"/><path fill-rule="evenodd" clip-rule="evenodd" d="M29.082 17.505c.229 0 .414.185.414.413v2.756h11.99a.414.414 0 0 1 .37.599l-2.342 4.686a.414.414 0 0 1-.37.229h-9.648v2.894a.414.414 0 0 1-.414.414H17.918a.414.414 0 0 1-.414-.414v-2.894H5.514a.413.413 0 0 1-.37-.599l2.342-4.686a.413.413 0 0 1 .37-.229h9.648v-2.756c0-.228.185-.413.414-.413h11.164ZM7.856 21.087h10.062v-3.17h11.164v3.17h12.405l-2.343 4.686H29.082v3.308H17.918v-3.308H5.513l2.343-4.686Z" fill="#5A3E1C"/><defs><linearGradient id="chevrolet__a" x1="28.738" y1="17.918" x2="28.738" y2="29.082" gradientUnits="userSpaceOnUse"><stop stop-color="#CEAE43"/><stop offset="1" stop-color="#C8A332"/></linearGradient><linearGradient id="chevrolet__b" x1="14.507" y1="17.918" x2="14.507" y2="29.082" gradientUnits="userSpaceOnUse"><stop stop-color="#C69F23"/><stop offset="1" stop-color="#E1C56F"/></linearGradient></defs></svg>