<svg fill="none" xmlns="http://www.w3.org/2000/svg" viewBox="0 0 48 48"><g clip-path="url(#jaguar__a)"><path d="M41.13 28.85c-.06 0-.18-.04-.26-.07a3.66 3.66 0 0 1-1.33-.97 4.99 4.99 0 0 0-2.19-1.45c-.6-.16-1.21-.16-2.83 0-1.21.1-1.8.11-2.35.02a4.47 4.47 0 0 1-3.02-1.92 17.497 17.497 0 0 1-1-1.6 1.8 1.8 0 0 0-.28-.41 2.4 2.4 0 0 0-1.42-.68c-.17-.02-.68.02-1.11.07-1.2.15-1.96.2-2.76.2A7.86 7.86 0 0 1 20 21.7l-.23-.08-.11.1c-.33.3-.79.46-1.45.49-.45.006-.9-.04-1.34-.14-.33-.07-1.23-.37-3.29-1.09a5.832 5.832 0 0 0-1.33-.42c-.24 0-.37.1-.54.45a2.4 2.4 0 0 1-1.68 1.34l-.12.02-.15-.08a1.6 1.6 0 0 1-.47-.37c-.34-.43-.32-.97.06-1.61a3.65 3.65 0 0 1 1.98-1.68c.17-.05.9-.19 1.27-.24.39-.05.36-.04.24-.14a4.73 4.73 0 0 0-1.83-.9 1.99 1.99 0 0 0-.75.02 2.89 2.89 0 0 0-1.9 1.26l-.26.35a.53.53 0 0 1-.3.15c-.1.01-.3-.02-.47-.07a2.71 2.71 0 0 1-.6-.3l-.06-.06v-.14c0-.12 0-.15.05-.24l.06-.1-.04-.14a2.4 2.4 0 0 1-.06-.21v-.07l-.12-.01a.79.79 0 0 1-.36-.12c-.04-.03-.05-.03-.11-.01-.41.14-.87-.11-1.14-.63a1.699 1.699 0 0 0-.18-.28c-.13-.14-.15-.2-.15-.36 0-.12 0-.16.05-.26.08-.18.3-.46.61-.78.27-.28.28-.3.27-.34a.5.5 0 0 1 .01-.3c.08-.18.37-.49.61-.66a6.14 6.14 0 0 1 2.7-.92c1.27-.19 2.8-.15 4.58.1a48.2 48.2 0 0 1 9.74 2.7 185.24 185.24 0 0 1 9.76 4.18c.87.45 1.96 1.04 4.96 2.69 2.1 1.16 2.8 1.54 3.6 1.95.83.42 1.01.49 1.4.55.26.04.7.03.95-.01.41-.07.61-.15 1.07-.42.3-.18.43-.24.63-.25.34-.02.6.11.73.37.06.12.07.34.03.51-.06.26-.26.59-.5.84-.4.42-.93.67-1.67.8-.2.02-.32.03-.7.03-.44 0-.53 0-.98-.07l-.07-.01.08.1c.1.12.2.3.24.49l.04.15-.07.1c-.2.31-.5.64-.67.75-.26.16-.6.22-.9.18l.01-.01Zm.5-.44c.22-.07.22-.08 0-.09a1.41 1.41 0 0 1-1.12-.58c.64.18 1.11.24 1.39.16.2-.05.41-.2.41-.28 0-.08-.09-.22-.2-.34-.14-.14-.23-.2-.54-.37a3.359 3.359 0 0 1-.74-.55c-.32-.3-.68-.7-.93-1.02-.55-.67-.67-.8-.95-1a2.1 2.1 0 0 0-.78-.31c-.14-.03-.3-.03-1.42-.04-1.33 0-1.6-.01-1.88-.07-.3-.07-.5-.17-.74-.37-.32-.27-.5-.52-.87-1.29l-.36-.7a2.978 2.978 0 0 0-.28-.34c-.18-.19-.19-.2-.16-.23.01-.03.03-.04.04-.04.43.224.793.559 1.05.97.54.78 1 1.2 1.55 1.4.32.12.82.19 2.1.29.77.06 1.04.09 1.23.14.21.05.51.2.7.34.08.06.44.42.88.87.41.42.82.83.91.9a3.8 3.8 0 0 0 1.95.9c.4.03.8.03 1.2 0 .27-.03.6-.1.74-.15.37-.13.76-.42.95-.68.08-.13.14-.3.14-.4 0-.1-.06-.25-.13-.3-.14-.1-.29-.07-.82.2a2.6 2.6 0 0 1-.56.24 3.9 3.9 0 0 1-2.27-.26 329.23 329.23 0 0 1-6.76-3.59 84.497 84.497 0 0 0-7.7-3.47A119.89 119.89 0 0 0 17 14.52l-.1-.03.03.04c.338.51.649 1.037.93 1.58a.483.483 0 0 1-.09.05l-.17-.21a5.86 5.86 0 0 0-2.8-1.91 7.561 7.561 0 0 0-2.66-.36 2.8 2.8 0 0 0-.81.14 4.15 4.15 0 0 0-1.16.69l.14.06c.64.21 1.27.74 1.82 1.53.12.16.32.5.32.53 0 0-.02.03-.05.04-.04.04-.04.04-.12-.03a7.5 7.5 0 0 0-2.66-1.5c-.62-.11-1.02-.36-1.07-.66-.01-.09-.03-.08.19-.05a1.52 1.52 0 0 0 1.41-.43c.08-.08.21-.26.21-.3h-.54c-.9 0-1.4.05-2.02.2-.92.23-1.57.53-1.8.84-.06.08-.07.1-.07.19 0 .1.05.17.14.19.1.02.13 0 .21-.17.15-.3.4-.5.66-.54.12-.03.86-.05.86-.03a2.42 2.42 0 0 1-.63.82c-.23.15-.4.21-.76.27l-.36.07c-.34.11-.68.46-.8.83-.08.2-.05.34.11.51.23.25.47.3.66.14.09-.08.16-.21.33-.58.28-.6.4-.76.6-.87a.8.8 0 0 1 .71.03c.13.07.3.25.38.4.19.37.24.89.13 1.22-.11.33-.43.75-.87 1.17a.96.96 0 0 0-.18.21c.02.05.35.17.47.17.04 0 .08-.01.1-.04.03-.02.21-.24.4-.5.28-.36.37-.46.41-.47a2 2 0 0 0 .67-.4c.27-.27.36-.56.33-1a1.88 1.88 0 0 0-.3-.9l-.05-.08h.07c.1 0 .28.06.4.14.27.16.57.52.77.92.04.07.1.17.15.22.09.1.23.19.3.19a6.67 6.67 0 0 1 2.42 1.08c.33.21.4.25.4.22l-.05-.22a2.77 2.77 0 0 1 .04-1.13h.06c.05.01.06.02.07.1.07.54.45 1.15 1.02 1.62a5.8 5.8 0 0 0 1.8.93l.19.06v.05c0 .06 0 .06-.05.06a6.54 6.54 0 0 1-1.82-.48c-.53-.2-.72-.26-1-.32a2.299 2.299 0 0 0-.59-.04c-.4 0-.97.05-1.39.12-1.03.16-1.65.6-2.23 1.58-.2.32-.25.52-.21.76.03.23.2.5.4.66l.1.07.1-.04.1-.05-.07-.04a.9.9 0 0 1-.3-.34.94.94 0 0 1 0-.73c.05-.14.2-.42.23-.42 0 0 .03 0 .05.02l.04.03-.03.1a.93.93 0 0 0-.04.24c-.04.4.17.7.58.8l.1.03.07-.05c.1-.08.3-.3.37-.4.07-.11.13-.26.15-.35.02-.15.21-.39.4-.5.2-.1.47-.13.74-.08l1.91.53c2.53.72 2.48.7 2.97.77.3.04.78.04 1 0 .22-.04.46-.12.6-.2.15-.08.37-.3.43-.43.15-.33.12-.84-.09-1.4a6.95 6.95 0 0 0-.84-1.53l-.06-.08.08-.08.14.1a8.79 8.79 0 0 0 5.05 1.66h.15l.01.06v.06l-.14.04c-.6.1-1.4.12-2.14.03a11.405 11.405 0 0 1-1.88-.4l.07.16c.2.41.287.866.25 1.32l-.02.1.15.07c.45.23 1.13.4 1.94.48.24.03.45.04 1.1.04.92 0 1.3-.03 2.25-.17a4.97 4.97 0 0 1 1.35 0 .9.9 0 0 0-.1-.3c-.1-.19-.24-.37-.48-.62l-.2-.21.03-.05c.03-.05.05-.04.23.06a6.18 6.18 0 0 1 2.18 2.38c.3.54.5.85.78 1.19a4.5 4.5 0 0 0 2.9 1.75c.36.05.6.05 1.86-.02 1.01-.06 1.25-.06 1.66-.06.9.02 1.58.14 2.07.38.37.17 1.14.8 1.78 1.43.62.61.94.86 1.31 1.05.3.14.62.18.85.1l-.01.01ZM8.94 14.2c-.04-.01-.05-.03-.06-.07 0-.09.19-.22.41-.28.15-.04.76-.04.8 0 .03.05 0 .08-.18.17a1.87 1.87 0 0 1-.96.18h-.01Zm-1.68 3.62c.07-.05.2-.22.27-.36.15-.34.13-.82-.06-1.08-.15-.2-.43-.2-.63 0-.15.15-.3.51-.3.72 0 .1.02.18.12.41l.07.18.11.06c.23.11.33.13.42.07Zm-.6-2.77a.6.6 0 0 0 .32-.19l.07-.07-.09-.01c-.2-.01-.33.05-.4.21-.06.1-.06.1.1.06Zm34.3 15.99h2.58c2.74.01 2.73.01 3.13.1.72.16 1.06.53 1.06 1.17 0 .37-.13.62-.4.82-.3.21-.6.3-1.17.36-.28.03-.32.04-.3.05A429.9 429.9 0 0 0 48 34.9c.02.02-.1.03-.74.02h-.77l-2.16-1.36h-1.95v1.37h-1.42v-3.89Zm4.63 2.05c.55-.05.73-.24.73-.78 0-.48-.13-.68-.53-.78-.11-.03-.25-.03-1.77-.04h-1.64v1.62h1.5c.86 0 1.6 0 1.71-.02Zm-13.88 1.77 1.64-1.94 1.59-1.88h1.46l1.6 1.9 1.64 1.93.03.05-1.57-.01-.72-.86h-4.14l-.73.86h-.85l.05-.05Zm5.3-1.23c0-.02-1.7-2.02-1.71-2.02-.02.01-1.7 2-1.7 2.02l1.7.01h1.72l-.01-.01ZM18.34 34.9c-.28-.01-.84-.06-1.01-.08-1.11-.17-1.71-.57-1.9-1.27-.1-.43-.08-1 .07-1.35.15-.37.44-.64.88-.82.21-.1.57-.18.87-.23.57-.08.85-.1 2.96-.1l2-.01v.44h-1.67c-1.7 0-2.13.02-2.41.07-.73.12-1.14.46-1.3 1.03-.05.248-.05.503 0 .75.17.59.6.91 1.4 1.04.2.03.31.04 1.49.05h1.27v-1.27h1.42v1.77h-1.97l-2.1-.02ZM6.8 34.88c0-.02.74-.89 1.62-1.94l1.6-1.9h1.48l1.63 1.93 1.62 1.93-.77.01h-.78l-.73-.86H8.32l-.72.86h-.42c-.4 0-.41 0-.39-.03h.01Zm5.3-1.26-1.7-2.01c-.01 0-1.68 1.96-1.7 2.01-.02.02.33.02 1.7.02 1.15 0 1.7 0 1.7-.02ZM0 34.4h1.58c1.73 0 1.67 0 2.04-.11.43-.13.75-.38.9-.7.15-.32.17-.44.17-1.61v-.94h1.4v1.14c0 1.25 0 1.24-.12 1.54-.13.33-.4.62-.8.8a3.81 3.81 0 0 1-1.19.31c-.55.07-.73.07-2.34.08H0v-.51Zm26.68.58a5.32 5.32 0 0 1-1.65-.3c-.5-.2-.83-.52-.97-.95-.08-.27-.08-.36-.08-1.56v-1.13h1.4v1.13c.01 1.21.01 1.2.11 1.45.26.67.97.97 2.16.94.5-.02.86-.09 1.15-.23.38-.18.6-.44.73-.84l.04-.16.02-2.29H31v1.17c.021.44.005.882-.05 1.32a1.4 1.4 0 0 1-.38.75c-.42.43-1.1.63-2.32.7-.34.03-1.25.03-1.58 0h.01Z" fill="#000"/></g><defs><clipPath id="jaguar__a"><path fill="#fff" d="M0 0h48v48H0z"/></clipPath></defs></svg>