<svg fill="none" xmlns="http://www.w3.org/2000/svg" viewBox="0 0 48 48"><path d="M41.76 5.25a43.919 43.919 0 0 0-5.54-1.8A51.92 51.92 0 0 0 24.49 2h-.1a51.99 51.99 0 0 0-11.72 1.44 43.93 43.93 0 0 0-5.56 1.8L7 5.29s.22 13.5.39 20.19c.04 1.97.4 3.92 1.06 5.77a27.771 27.771 0 0 0 3.02 6A24.02 24.02 0 0 0 18.39 44c1.22.73 2.49 1.38 3.8 1.92.43.18.81.36 1.16.48.35.13.72.25 1.1.34.37-.1.73-.2 1.09-.34.34-.12.72-.3 1.16-.48a20.96 20.96 0 0 0 6.02-3.55 24.003 24.003 0 0 0 4.68-5.13 27.74 27.74 0 0 0 3.02-5.99c.66-1.85 1.02-3.8 1.07-5.77.17-6.7.39-20.18.39-20.18a1.177 1.177 0 0 0-.1-.05h-.02Z" fill="url(#porsche__a)"/><path d="m30.39 29 .15-.04.94-.2c.04 0 .07-.06.07-.08.11-.46.3-.9.57-1.3a1.83 1.83 0 0 1 2.27-.48.1.1 0 0 1 .038.09.1.1 0 0 1-.058.08c-.27.11-.5.3-.67.53-.2.2-.34.45-.42.71 0 .03-.01.07.02.09.04.02.5 0 .68.04.04 0 .04-.02.07-.06.15-.5.43-.93.83-1.26a1.57 1.57 0 0 1 1.45-.26 1.03 1.03 0 0 1 .7.57c.01.02.01.07-.03.07-.33.06-.65.2-.92.42-.23.16-.43.38-.56.63 0 0-.05.07.03.09.23.05.46.12.69.2.02.03.09 0 .1-.02a1.8 1.8 0 0 1 1.15-.78c.7-.11 1.36.2 1.47.66.01.06.03.15-.02.14-.39.02-.75.16-1.05.4-.07.04-.14.1-.2.15-.05.04-.04.07-.03.08.15.16.67.54.7 1.06.04.33-.02.66-.14.96a.07.07 0 0 1-.06.04c-.05 0-.06-.04-.07-.05a5.199 5.199 0 0 0-1.27-1.05 6.11 6.11 0 0 0-3.03-.73c-1.72.03-4.51 1.03-5.2 1.2l-.05.02L30.39 29Zm4.43 3.47a1.7 1.7 0 0 0-.85.78c0 .02-.04.1-.06.07l-.62-.07c-.08 0-.05-.08-.05-.09a2.2 2.2 0 0 1 1.2-1.19.04.04 0 0 0 .02-.05 1.17 1.17 0 0 0-.87-.43 1.5 1.5 0 0 0-1.15.45c-.35.38-.57.86-.62 1.38-.02.04-.04.06-.07.06-.17.03-.35.05-.52.05-.03 0-.03-.04-.03-.07 0-.26.07-.52.2-.75.23-.45.58-.83 1.02-1.09.06-.04.07-.14.05-.15a1.702 1.702 0 0 0-1.61.15 1.8 1.8 0 0 0-.73.77c-.18.46-.29.95-.32 1.44a.12.12 0 0 1-.07.07c-.22.037-.437.087-.65.15l-.02-.03a2.06 2.06 0 0 1 .68-1.84.07.07 0 0 0 .01-.113.07.07 0 0 0-.04-.017 1.83 1.83 0 0 0-1.78.74 1.8 1.8 0 0 0-.27.72c-.04.37-.01.74.08 1.1 0 .02.01.05-.03.06l-.66.34-.04-.01a1.08 1.08 0 0 0-.5-.67.98.98 0 0 0-.83.04c-.17.1-.31.24-.4.42a.7.7 0 0 0 .23.85c.01 0 .03.03 0 .04-.16.1-.17.11-.3.3a.8.8 0 0 0 .1.84.869.869 0 0 0 1.3.16c.01-.01.04 0 .05.03.07.11.16.2.27.29a.86.86 0 0 0 .85 0 .77.77 0 0 0 .39-.78.7.7 0 0 0-.2-.49c-.03-.03 0-.04.05-.09a10.071 10.071 0 0 1 3.66-1.24c.66-.1 1.34-.09 2 .04.44.1.84.3 1.18.59.27.22.53.47.75.75a.3.3 0 0 0 .22-.05 1.231 1.231 0 0 0 .03-.96c-.16-.42-.4-.8-.72-1.1v-.04c-.01-.06.02-.08.1-.15.29-.27.65-.46 1.04-.55.05 0 .07-.04.04-.1a1.22 1.22 0 0 0-1.5-.56h-.01Zm7.05-27.16s-.22 13.5-.39 20.18a18.4 18.4 0 0 1-1.06 5.78 27.746 27.746 0 0 1-3.02 5.99A24 24 0 0 1 30.49 44a28.353 28.353 0 0 1-3.8 1.93c-.44.18-.82.35-1.16.47-.36.14-.73.25-1.1.34-.38-.09-.74-.2-1.1-.34-.34-.12-.72-.3-1.16-.47a20.948 20.948 0 0 1-6.02-3.55 24.02 24.02 0 0 1-4.68-5.13 27.771 27.771 0 0 1-3.02-6 18.52 18.52 0 0 1-1.06-5.75C7.22 18.8 7 5.3 7 5.3s.04 0 .11-.04a44.9 44.9 0 0 1 5.55-1.8 51.93 51.93 0 0 1 11.73-1.44h.1a51.98 51.98 0 0 1 11.73 1.44 43.918 43.918 0 0 1 5.65 1.85ZM8.7 29.88h10.6a5.86 5.86 0 0 1-1.56-3.91v-.17H8.06c.06 1.38.27 2.75.64 4.08Zm15.32 9.72h-9.9a23.971 23.971 0 0 0 4.5 3.83c1.17.7 2.39 1.33 3.65 1.86.42.18.78.35 1.12.46l.63.22V39.6Zm0-4.6H10.85c.34.62.72 1.25 1.13 1.87.5.77 1.07 1.5 1.67 2.2h10.37V35Zm0-2.79a7.26 7.26 0 0 1-4.25-1.86H8.84l.23.71c.41 1.17.91 2.3 1.49 3.4h13.46v-2.25Zm0-24.7a49.5 49.5 0 0 0-10.9 1.4 41.935 41.935 0 0 0-5.37 1.76c.08 4.34.2 10.63.3 14.6h9.68v-3.63h-.09a9.363 9.363 0 0 0-3.15.4c-1.08.31-2.12.77-3.1 1.34-.06.04-.06.04 0 .1.12.15.21.32.27.5a.57.57 0 0 1-.31.63.8.8 0 0 1-.66.12 1.1 1.1 0 0 1-.42-.29c-.04-.05-.08.02-.13.05-.14.09-.28.16-.43.23a.68.68 0 0 1-.84-.23.74.74 0 0 1 .02-.88c.09-.1.24-.16.35-.26.02-.02.04-.06.02-.09a1.63 1.63 0 0 1-.18-.28.76.76 0 0 1 .22-.8.77.77 0 0 1 .8-.07c.16.07.29.3.39.45.02.03.05.05.08.03l.26-.15c.03-.03.01-.1 0-.14-.32-.78-.4-1.31-.1-1.87a1.382 1.382 0 0 1 .9-.7.95.95 0 0 1 .7.04c.02 0 .01.05 0 .07a1.83 1.83 0 0 0-.46 1.82c.02.06.04.08.08.06l.6-.2c.05 0 .02-.08.02-.13-.14-.48-.12-1 .05-1.47a1.8 1.8 0 0 1 1.7-1c.12 0 .29.12.2.2a1.87 1.87 0 0 0-.91 1.92c0 .03.04.06.07.05l.73-.2c.04-.02.03-.09.03-.13 0-.6.21-1.17.58-1.63a2.031 2.031 0 0 1 1.67-.68c.12.04.23.1.31.18a.1.1 0 0 1-.01.12c-.62.41-1.1 1-1.36 1.7 0 .02.04.06.06.05.36-.02.74-.08 1.1-.11.05 0 .06-.02.06-.05a1.88 1.88 0 0 1 .87-1.07v-1.75a3.312 3.312 0 0 0-.9-.2c-2.05.04-4.07.6-5.85 1.63-.03.02-.08.07-.07.1.23.54.09.85-.21 1.05a.72.72 0 0 1-.99-.24.08.08 0 0 0-.11-.01c-.2.13-.45.2-.7.2a.63.63 0 0 1-.54-.4.78.78 0 0 1 .5-.99c.05-.01.04-.04.02-.08a.66.66 0 0 1 .14-.99.72.72 0 0 1 1.06.42c0 .04.01.02.05.01.12-.02.24-.07.35-.13.04-.02.1-.19.1-.23.03-.9-.02-1.46.58-2.04.26-.26 1.1-.46 1.32-.18.02.02.02.04 0 .05-.19.1-.35.26-.46.45a1.8 1.8 0 0 0-.27 1.26c0 .03.01.08.03.08l.75-.28c.02-.01 0-.06 0-.09-.04-.6.14-1.2.51-1.7.39-.42 1.36-.86 1.83-.45.04.04 0 .1-.05.13-.25.13-.47.31-.64.54-.22.28-.38.62-.45.97-.01.04.04.12.08.12.21-.05.6-.1.81-.17.11-.03.08-.06.1-.17a1.96 1.96 0 0 1 1.77-1.8c.32-.06.65-.01.93.14a.86.86 0 0 1 .215.203.068.068 0 0 1 0 .054.069.069 0 0 1-.015.023l-.04.02c-.34.02-.68.14-.96.33a1.37 1.37 0 0 0-.64.9c0 .04.02.1.06.1.31-.002.62-.015.93-.04a.07.07 0 0 0 .02-.04 1.84 1.84 0 0 1 2.09-1.17c.3.07.59.22.8.44.07.08.05.1.01.1a3.2 3.2 0 0 0-1.33.59c-.05.05-.1.09-.03.1h5.5V7.51Zm4.52 23.4c-.43.31-.9.57-1.39.77h.01l.07.12a.8.8 0 0 1 .06.39.44.44 0 0 1-.33.42.7.7 0 0 1-.72-.12.59.59 0 0 1-.57.2.62.62 0 0 1-.4-.31l-.07-.19c-.2.02-.39.04-.59.04v13.82c.21-.06.52-.17.88-.3.33-.1.7-.28 1.11-.45a20.148 20.148 0 0 0 5.79-3.44 23.199 23.199 0 0 0 4.5-4.98 27.016 27.016 0 0 0 2.91-5.81 18 18 0 0 0 1.02-5.43h-9.55v.32a6.13 6.13 0 0 1-2.73 4.95ZM40.93 20.9h-9.65v4.21h9.55c.04-1.23.07-2.68.1-4.21Zm.08-4.18h-9.72v3.59h9.66l.06-3.6v.01Zm.09-4.69H24.61v4.1h16.41l.08-4.1Zm.02-1.36a41.94 41.94 0 0 0-12.97-3c-1.18-.1-2.36-.15-3.54-.16v4h16.5l.01-.84Zm.08-4.79a42 42 0 0 0-13.05-3.03c-1.22-.1-2.44-.15-3.66-.16h-.1a49.63 49.63 0 0 0-11.27 1.4 42 42 0 0 0-5.45 1.79l.08 4.25.03-.02c1.74-.7 3.52-1.28 5.33-1.75a49.599 49.599 0 0 1 7.62-1.24c1.21-.11 2.44-.18 3.66-.2h.1a50.1 50.1 0 0 1 11.27 1.44 42.032 42.032 0 0 1 5.37 1.76l.07-4.24Zm-8.94 32.2a1.99 1.99 0 0 0-.69.79l-.4-.12v-.05a2.081 2.081 0 0 1 1.3-1.05c.02-.01.01-.04 0-.05-.2-.5-1.23-.46-1.73-.14-.46.3-.8.78-.92 1.33 0 .04.02.06 0 .07a2.28 2.28 0 0 1-.44.1.05.05 0 0 1-.04-.04c-.04-.25 0-.5.13-.73.17-.29.379-.556.62-.79a.08.08 0 0 0-.02-.09.93.93 0 0 0-.95 0c-.42.22-.74.6-.89 1.05a2 2 0 0 0 .02 1.06c0 .01.03.05 0 .05-.14.06-.25.13-.4.19l-.05-.01a1.18 1.18 0 0 1 .16-1.38c.04-.02.05-.06-.01-.08a1.102 1.102 0 0 0-1 .36 1.26 1.26 0 0 0-.2 1.23c.03.16.09.33.18.48 0 .01.05.04.02.05l-.28.22h-.03a.9.9 0 0 0-.54-.45.64.64 0 0 0-.77.46.67.67 0 0 0 .45.83c.01 0 .03.02.01.04a.97.97 0 0 0-.35.4.7.7 0 0 0 .15.75.7.7 0 0 0 .55.16 1.13 1.13 0 0 0 .66-.58s.04-.03.06-.01a1 1 0 0 0 .49.37.6.6 0 0 0 .6-.12.65.65 0 0 0 .2-.74.95.95 0 0 0-.37-.4c-.02-.02 0-.07.05-.1a5.48 5.48 0 0 1 2.6-1.16c.66-.1 1.33.02 1.92.3.23.14.44.3.63.5.02.02.1.04.11.02a.74.74 0 0 0 .07-1.02c-.1-.13-.23-.23-.38-.31l-.02-.03c.12-.29.31-.54.56-.73.18-.11.36-.2.55-.27.04-.01.04-.03.02-.08-.24-.55-1.18-.57-1.63-.29v.01ZM20.94 9.98a1.13 1.13 0 0 1 .99.75c0 .02-.03.05-.06.05-.38 0-.75.03-1.13.1-.23.09-.44.22-.62.4-.02.02 0 .07.02.07.43.1.83.32 1.14.64a1.23 1.23 0 0 1 .38 1.27.18.18 0 0 1-.1.1.13.13 0 0 1-.12-.05c-.75-.64-1.7-1-2.7-1.04-2.72.07-5.4.76-7.81 2-.03.02-.05.07-.03.1a.73.73 0 0 1 .17.55c-.08.28-.16.3-.38.46a.73.73 0 0 1-1.05-.15.05.05 0 0 0-.06 0c-.14.1-.3.17-.46.23a.66.66 0 0 1-.8-.25.83.83 0 0 1 .39-1.11.06.06 0 0 0 .01-.09.67.67 0 0 1 .26-.9c.3-.17.94-.28 1.12.27a.05.05 0 0 0 .04.04h.02c.15-.05.29-.1.43-.17.03-.02.05-.09.03-.15a2.6 2.6 0 0 1 .37-2.1c.61-.7 1.34-1 2.1-.7.03.01 0 .07-.02.1-.3.3-.72.5-.94.87-.23.37-.34.8-.33 1.22 0 .03.05.03.07.02.39-.13.87-.3 1.33-.44.03 0 .08-.01.08-.04a3.998 3.998 0 0 1 .06-.77 2.1 2.1 0 0 1 2-1.77c.25 0 .5.04.74.13.03.01.05.08.02.1-.33.22-.63.47-.92.74-.28.3-.45.69-.48 1.1l.02.03c.431-.11.869-.193 1.31-.25a.08.08 0 0 0 .03-.05c.06-.4.38-1.48.91-1.83a2.3 2.3 0 0 1 1.94-.36c.15.08.28.18.38.32.02.03-.02.08-.06.1-.46.15-.9.4-1.27.71-.25.27-.42.6-.47.97.4 0 .8.01 1.2.03.02 0 .03-.02.03-.03.19-.44.51-.8.93-1.03.4-.18.85-.24 1.3-.19h-.01Z" fill="url(#porsche__b)"/><path d="m40.29 6.32-.01.27-.22-.08-.15-.05-.02-.01a40 40 0 0 0-2-.65h-.02l-.26-.08-.27-.07-.23-.06v.64l.14.04.1.03.18.05.17.05c.77.22 1.52.46 2.27.73l.1.03.2.07v.08l-.01.58h-.02l-.2-.06-.13-.04a36.462 36.462 0 0 0-2.5-.8l-.34-.1v.64l.13.04.26.08.26.08.1.03.1.03c.38.11.73.23 1.07.34l1.02.35h.03l.03.02.06.03.11.04c0 .2 0 .4-.02.6l-.2-.06-.04-.02-.03-.01c-.63-.23-1.25-.42-1.8-.6a40.41 40.41 0 0 0-1.76-.53v-.01l.02-1.29.03-1.86c1.19.31 2.36.69 3.5 1.12h.03l.13.05.18.07v.3l.01-.01ZM35.54 4.6a6.897 6.897 0 0 0-.26-.06l-.32-.07v.48l-.02.3c0 .11 0 .22-.02.32v.21l-.16-.04-.12-.02-.1-.02-.1-.02-.72-.15-.76-.15-.04-.01h-.03l-.19-.04-.18-.03-.05-.01v-.37l.01-.35v-.62l-.16-.02-.11-.02-.14-.02-.2-.03V4l-.05 1.67v.27l-.02.26-.01.38V7l.15.03.1.02.16.02.24.04h.01V6.7l.01-.22v-.49l.01-.14.1.01h.03l.02.01.75.15 1.16.23h.05l.05.02.13.03.13.03V7.4l-.01.13.2.05.13.03.11.03.2.04V7.4c.032-.876.048-1.753.05-2.63v-.16h-.03V4.6Zm-6.27-1.13-1.13-.12a.63.63 0 0 0-.46.16.56.56 0 0 0-.23.37V6.1c0 .06 0 .12.02.17.02.05.05.1.09.14.06.05.14.1.22.12l.14.01h.03l.04.01 1.47.14c.5.06 1 .1 1.51.18l.23.04.01-.32v-.27l-.27-.04-.2-.03h-.05l-1.24-.15-1.25-.15a.1.1 0 0 1-.09-.1V4.17a.17.17 0 0 1 .06-.16.3.3 0 0 1 .17-.06c.27.02 2.59.33 2.96.38v-.62l-2.03-.23v-.01Zm-7.3 2.4c.09.19.14.39.16.6l-.73.04a2.298 2.298 0 0 0-.23-.6.6.6 0 0 0-.57-.36l-1.88.2v1l-.34.05-.34.04v-3.2s3.01-.34 3.34-.32c.34.02.41.2.43.37.043.372.057.746.04 1.12a.74.74 0 0 1-.35.47c.2.16.35.37.47.6v-.01Zm-.8-1.65a.209.209 0 0 0-.07-.17.4.4 0 0 0-.24-.07l-2.17.22v.96l1.05-.1 1.04-.08c.1-.01.2-.06.28-.13a.359.359 0 0 0 .1-.28v-.35h.01Zm-3.92.02.02 2.15a.7.7 0 0 1-.51.6l-2.97.58c-.22.05-.5-.24-.5-.47l-.01-2.14c0-.24.26-.43.48-.48.22-.06 2.81-.56 2.98-.59a.44.44 0 0 1 .51.35Zm-.69.57c0-.18-.07-.34-.35-.3-.36.06-1.53.27-1.91.35-.32.06-.45.18-.45.46v1.36c0 .2.12.34.33.3l2.1-.4a.37.37 0 0 0 .3-.39l-.01-1.38h-.01Zm9.73-.25c-.25-.02-.52-.03-.8-.03h-1.92a.1.1 0 0 1-.05-.04.17.17 0 0 1-.04-.1v-.24l.02-.27c.02-.04.06-.06.15-.07l1.96.01h.28c.22 0 .48.02.67.01v-.56l-.9-.03h-.06l-.6-.02h-1.76a.54.54 0 0 0-.25.1.27.27 0 0 0-.13.18v.65l-.02.64a.25.25 0 0 0 .13.18c.08.05.18.08.27.09h.43l.41.01c.584.005 1.167.022 1.75.05.08 0 .11.04.13.09v.34c0 .07 0 .14-.03.2-.02.05-.07.06-.18.06H25l-.42-.01h-1.1l-.64.04-.02.55a38.43 38.43 0 0 1 2.66-.01l.35.01.4.01c.09 0 .17-.04.25-.1a.3.3 0 0 0 .13-.21v-.62l.01-.6a.31.31 0 0 0-.11-.2.39.39 0 0 0-.2-.11h-.02Zm-13.67.7.03 1.28-.01.09a.35.35 0 0 1-.1.15.4.4 0 0 1-.16.11l-3.14.98.02 1.08-.83.3V7.73l-.02-1.6c0-.02.02-.03.06-.05l2.2-.77a20.2 20.2 0 0 1 1.34-.4c.14-.03.28 0 .4.06a.4.4 0 0 1 .2.3l.01-.01Zm-.72.98-.01-.45a.27.27 0 0 0-.15-.2.22.22 0 0 0-.09-.02h-.04l-1.08.32c-.38.13-1.33.5-1.33.5l.01.94 2.41-.77a.479.479 0 0 0 .2-.12.349.349 0 0 0 .1-.2h-.02Zm10.49 11.32v.88c0 .1-.02.2-.06.28a.26.26 0 0 1-.24.1.272.272 0 0 1-.24-.1.48.48 0 0 1-.06-.28v-.88a.12.12 0 0 0-.08-.1.12.12 0 0 0-.15.06v.84c-.02.18.02.35.1.5a.48.48 0 0 0 .44.19.471.471 0 0 0 .42-.2.879.879 0 0 0 .1-.48v-.8a.12.12 0 0 0-.2-.09.12.12 0 0 0-.03.08Zm1.18.1a.115.115 0 1 0 0-.23h-.66a.115.115 0 1 0 0 .23h.22v1.27a.12.12 0 0 0 .2.08.12.12 0 0 0 .03-.08v-1.27h.21Zm1.05 0a.11.11 0 0 0 .08-.2.108.108 0 0 0-.08-.03h-.66a.115.115 0 1 0 0 .23h.21v1.27a.12.12 0 0 0 .2.08.12.12 0 0 0 .03-.08v-1.27h.22Zm1.26.45h-.36c-.1 0-.1.05-.1.09a.1.1 0 0 0 .06.1.1.1 0 0 0 .04.02h.25v.07a.43.43 0 0 1-.3.45.3.3 0 0 1-.3-.19.98.98 0 0 1 .02-.84.28.28 0 0 1 .25-.18.31.31 0 0 1 .25.16.1.1 0 0 0 .13.04.09.09 0 0 0 .06-.11.43.43 0 0 0-.44-.3.42.42 0 0 0-.41.24c-.1.17-.16.37-.15.57 0 .2.04.4.13.57a.48.48 0 0 0 .43.27c.1 0 .2-.02.28-.07a.73.73 0 0 0 .27-.44l.03-.29c0-.08-.02-.16-.14-.16Zm3.84-.45a.11.11 0 0 0 .08-.2.108.108 0 0 0-.08-.03h-.66a.115.115 0 1 0 0 .23h.22v1.27a.12.12 0 0 0 .23.04v-1.31h.21Zm-1.35.8.03-.02a.571.571 0 0 0 .33-.3.45.45 0 0 0 .02-.2.519.519 0 0 0-.2-.4.68.68 0 0 0-.38-.1h-.36a.12.12 0 0 0-.1.04.14.14 0 0 0-.02.09v1.35a.11.11 0 0 0 .11.13.11.11 0 0 0 .12-.13v-.43h.22l.35.48a.12.12 0 0 0 .1.06c.07 0 .11-.04.11-.1a.16.16 0 0 0-.04-.1l-.3-.38.01.01Zm-.46-.2v-.6h.28a.33.33 0 0 1 .31.17l.03.12a.34.34 0 0 1-.37.32h-.27l.02-.01Zm-.93-.71a.2.2 0 0 0-.16-.14.19.19 0 0 0-.17.14l-.43 1.36a.1.1 0 0 0 .02.1.121.121 0 0 0 .08.05c.06 0 .12 0 .14-.08l.06-.24h.62l.07.23a.12.12 0 0 0 .12.09.12.12 0 0 0 .1-.05.15.15 0 0 0 0-.13l-.45-1.33Zm.07 1h-.48l.25-.86.27.87h-.04v-.01Zm-6.84-.31a1.139 1.139 0 0 0-.5-.15.21.21 0 0 1-.17-.25.27.27 0 0 1 .28-.18.37.37 0 0 1 .29.12c.06.08.18 0 .18-.07s-.12-.28-.46-.28a.6.6 0 0 0-.34.1.4.4 0 0 0-.19.3.471.471 0 0 0 .13.37c.09.08.2.13.32.13a.4.4 0 0 1 .36.18.2.2 0 0 1-.04.22.42.42 0 0 1-.28.1.451.451 0 0 1-.29-.13.159.159 0 0 0-.15-.04c-.09.02-.07.13-.07.14a.55.55 0 0 0 .5.26.602.602 0 0 0 .45-.16c.09-.09.13-.2.13-.33a.38.38 0 0 0-.15-.33Zm1.04-.57a.111.111 0 0 0 .098-.072.11.11 0 0 0-.028-.118.109.109 0 0 0-.08-.04h-.66a.115.115 0 1 0 0 .23h.22v1.27a.12.12 0 0 0 .07.11.12.12 0 0 0 .13-.02.12.12 0 0 0 .03-.09v-1.27h.22Zm-9.46-6.15c.18-.4.48-.74.84-.97.18-.12.19-.16.19-.18 0 0-.04-.02-.28-.03-.35.03-.69.18-.96.41a2.2 2.2 0 0 0-.69 1.1c-.07.5-.06 1 .03 1.5 0 0-.6.28-.81.4a1.28 1.28 0 0 0-.23-.46.6.6 0 0 0-.68-.07.48.48 0 0 0-.28.5c.03.15.1.3.2.43a.94.94 0 0 0-.45.27.65.65 0 0 0-.16.6.45.45 0 0 0 .48.28c.25-.05.48-.18.67-.36l.28.3c.1.07.22.1.35.1.1 0 .2-.02.28-.06a.51.51 0 0 0 .26-.5c-.03-.29-.3-.4-.28-.5a16.92 16.92 0 0 1 4.37-1.7 16.196 16.196 0 0 1 3.16-.5 4.898 4.898 0 0 1 2.02.2c.54.14 1.03.41 1.43.8a1.33 1.33 0 0 0-.73-1.17 2.699 2.699 0 0 0-1.2-.4c.1-.16.23-.32.37-.46.23-.22.51-.37.83-.43.27-.04.55-.06.83-.05a.63.63 0 0 0-.57-.38 1.93 1.93 0 0 0-.95.08 2.3 2.3 0 0 0-1.2 1.23 14.18 14.18 0 0 0-1.69.01c.06-.45.23-.89.5-1.26.3-.36.7-.62 1.15-.74a.67.67 0 0 0 .19-.1c-.1-.09-.23-.18-.7-.2a1.85 1.85 0 0 0-1.52.83c-.28.45-.44.96-.47 1.49-.9.16-1.94.43-1.94.43a2.36 2.36 0 0 1 1.18-2.1l.19-.13a.8.8 0 0 0-.4-.06 1.76 1.76 0 0 0-1.76 1.77c0 .13.03.67 0 .8-.69.18-1.37.4-2.04.65-.07-.47 0-.94.19-1.37Zm7.53 3.87s.23-.06.32-.1a.669.669 0 0 0-.16-.1c-.2-.11-.43-.16-.66-.16-.24 0-.48.05-.7.15-.44.24-.77.66-.9 1.15 0 0-.54.01-.75.03l-.76.05c0-.13.03-.26.06-.39a1.89 1.89 0 0 1 1.51-1.36c.04 0 .09-.02.11-.03a.88.88 0 0 0-.5-.14 1.91 1.91 0 0 0-1.9 1.78l-.03.2-.55.12c-.312.053-.62.13-.92.23a2.5 2.5 0 0 1 1.14-2.03 1.196 1.196 0 0 0-.3-.04 1.4 1.4 0 0 0-1.29.9c-.17.46-.24.96-.22 1.46-.29.07-.94.32-1.21.42-.08-.36-.07-.73.01-1.08a1.7 1.7 0 0 1 .63-1c-.02 0-.07-.03-.34.03a1.4 1.4 0 0 0-1 .96c-.1.48-.13.98-.11 1.48l-.79.36a1.227 1.227 0 0 0-.14-.38.49.49 0 0 0-.4-.22c-.1 0-.2.03-.28.07a.35.35 0 0 0-.17.21.46.46 0 0 0 .03.36c.09.115.173.235.25.36-.17.04-.33.12-.47.23a.5.5 0 0 0-.16.66.43.43 0 0 0 .4.23 1 1 0 0 0 .69-.35l.21.32a.44.44 0 0 0 .38.2c.09 0 .17-.02.24-.06a.54.54 0 0 0 .26-.47.73.73 0 0 0-.19-.44l-.04-.06.38-.2a14.55 14.55 0 0 1 5.19-1.64 2.7 2.7 0 0 1 1.53.15v-1.16h.46c.3-.35.7-.6 1.14-.7Zm-1.6 4.28v1.69a5.88 5.88 0 0 0-.55-.04c-1.51.1-3 .45-4.38 1.08-.62.27-1.23.59-1.8.94.2.11.36.29.45.5.1.34-.12.64-.56.66-.39.01-.49-.34-.61-.47-.04.02-.37.34-.48.4a.62.62 0 0 1-.32.09.49.49 0 0 1-.49-.36.47.47 0 0 1 0-.2.59.59 0 0 1 .31-.4c.12-.06.23-.13.33-.21-.03-.11-.24-.3-.3-.45a.57.57 0 0 1 .18-.62.51.51 0 0 1 .58.02c.22.13.34.54.37.58.13-.09.5-.33.72-.5a2.752 2.752 0 0 1-.37-1.45c.12-.78.92-1.31 1.31-1.12-.32.33-.5.77-.51 1.23-.05.35 0 .7.17 1.01 0 0 .85-.34 1.17-.43a2.55 2.55 0 0 1-.05-1.71 1.58 1.58 0 0 1 1.41-.86 2.06 2.06 0 0 0-.83 2.3c.17-.04 1.16-.37 1.28-.4a2.4 2.4 0 0 1 .5-1.64 1.801 1.801 0 0 1 1.2-.74c.1 0 .2.01.3.04 0 .04 0 .04-.08.1l-.06.03c-.4.33-.76.71-1.04 1.15-.14.26-.2.55-.2.85v.04s.5-.1.9-.13c.4-.04.78-.05.78-.05.13-.368.362-.69.67-.93Zm16.38 7.3c-.33.1-.61.31-.79.6-.3.48-.42 1-.24 1.02h.38c.22 0 .44 0 .65.03a.2.2 0 0 0 .12-.06.979.979 0 0 0 .08-.13c.16-.52.49-.98.93-1.31a1 1 0 0 1 .6-.2 1.02 1.02 0 0 1 .87.37c.07.11-.37-.1-1.04.6a2.09 2.09 0 0 0-.5.75c0 .02.02.07.04.07.32.1.87.23 1.14.34a.14.14 0 0 0 .17-.05c.15-.23.35-.43.58-.59.26-.16.55-.24.85-.23h.05c.64.09.68.4.71.45.04.05-.14.04-.21.06-.44.1-.84.34-1.12.7-.04.07.13.2.13.2a1.29 1.29 0 0 1 .65 1.34c-.02.1 0 .14-.09.14a.942.942 0 0 1-.25-.19 7.778 7.778 0 0 0-.9-.68 4.508 4.508 0 0 0-1.65-.65 7.84 7.84 0 0 0-1.37-.13c-1.03 0-2.05.16-3.04.44l-1.38.42-.35.1.22-.2c.25-.23.49-.48.7-.75l.16-.2.27-.06 1.13-.26a.32.32 0 0 0 .24-.25c.05-.45.24-.86.54-1.2a1.46 1.46 0 0 1 1.08-.67c.51-.04.72.13.63.18h.01Zm-8.22 8.6a.84.84 0 0 1-.32-.6.57.57 0 0 1 .34-.53.8.8 0 0 1 .7.06c.26.18.27.36.37.63l.03.01.87-.43.14-.08s.06-.02.04-.1a2.823 2.823 0 0 1-.14-.87c.03-.325.14-.637.32-.91.4-.7 1.18-.64 1.1-.57-.27.3-.45.69-.53 1.1-.04.22-.03.45 0 .68.02.1.03.22.1.26.06.03.3-.1.46-.15.19-.08.45-.11.63-.16.1-.03.08-.08.08-.1-.02-.64.16-1.26.5-1.79a1.629 1.629 0 0 1 1.13-.63c.16-.02.4.06.32.1a2.79 2.79 0 0 0-.9.9c-.2.4-.27.84-.2 1.28.351 0 .701-.048 1.04-.14a.179.179 0 0 0 .1-.12c.13-.4.27-1.16.7-1.45.2-.17.46-.27.72-.28.2-.01.72.15.6.2-.31.14-.6.36-.82.63-.16.21-.27.47-.3.74-.03.15.14.19.14.19.28.02.57.05.85.1.08.02.15-.09.17-.12.12-.2.28-.4.47-.54.18-.18.42-.28.67-.3.53 0 .79.38.72.4-.46.12-.86.39-1.14.76-.02.02-.07.04.01.11.48.4.79.95.88 1.56 0 .05.03.26-.05.3a4.997 4.997 0 0 0-1.16-1.04 4.149 4.149 0 0 0-1.96-.45c-.82.01-1.64.13-2.43.37-.89.27-1.73.64-2.52 1.12a.7.7 0 0 1 .27.36.59.59 0 0 1-.18.7.5.5 0 0 1-.46.08c-.38-.05-.48-.44-.53-.56a.58.58 0 0 1-.27.3.57.57 0 0 1-.83-.14.53.53 0 0 1 .09-.72l.18-.17v.01Zm1.33 4.71a2.688 2.688 0 0 1-.17-.39 1.67 1.67 0 0 1-.1-.89.86.86 0 0 1 .78-.69.87.87 0 0 0-.23.74c.02.27.1.52.24.75.03.05.05.03.07.02.214-.123.434-.233.66-.33v-.02a1.922 1.922 0 0 1 .18-1.49 1.32 1.32 0 0 1 .94-.66c.02 0 .26 0 .28.1-.27.2-.5.46-.63.77-.11.3-.14.65-.06.97l.04.03.75-.19a.1.1 0 0 0 .05-.05c.1-.47.33-.89.68-1.21.27-.22.6-.36.93-.4.45 0 .5.14.56.2.03.05-.1-.01-.3.08-.26.13-.49.3-.67.53-.17.2-.28.43-.31.7l.01.04c.26.04.51.1.76.19.02 0 .03 0 .04-.02.15-.27.33-.52.55-.73.21-.2.49-.3.77-.3a.8.8 0 0 1 .49.14s.17.14.13.16c-.3.08-.57.25-.78.5-.3.34-.3.43-.33.52-.02.08-.01.11.08.17.47.3.53.56.55.73.03.19-.08.45-.24.25-.2-.26-.47-.45-.79-.55a3.92 3.92 0 0 0-2.67-.06 5.25 5.25 0 0 0-2.18 1.27c-.06.06.04.1.08.12.55.24.57.6.42.77a.39.39 0 0 1-.47.07c-.41-.26-.33-.5-.52-.44-.12.04-.25.35-.35.46a.43.43 0 0 1-.6.08.48.48 0 0 1-.08-.66c.1-.1.21-.19.32-.27l-.4-.28a.462.462 0 0 1 .02-.67.5.5 0 0 1 .7.1s.2.28.2.3c.02.01.04.01.07 0 .174-.15.351-.296.53-.44v-.02Zm2.53-15.41a.5.5 0 0 1-.18 0 .25.25 0 0 1-.16-.1.371.371 0 0 1-.08-.16c0-.04.03-.07.06-.1.1-.06.18-.15.24-.25.05-.1.08-.2.08-.3 0-.02-.04-.02-.05-.01-.07.06-.1.15-.18.2a.38.38 0 0 1-.23.07.23.23 0 0 1-.15-.08.484.484 0 0 1-.08-.16c-.02-.05.06-.08.1-.1.12 0 .22-.03.32-.08a.35.35 0 0 0 .14-.16.497.497 0 0 0 .03-.16c0-.02 0-.04-.01-.03l-.15.07a.369.369 0 0 1-.29-.02.731.731 0 0 1-.2-.25c-.02-.01 0-.05.01-.05.1-.02.17-.12.24-.24a.45.45 0 0 0 .03-.07c.02-.04.06-.07.06-.09a.728.728 0 0 0 .02-.2.26.26 0 0 0-.08-.16c-.01-.02-.06-.02-.07 0-.04.07-.02.16-.06.23a.72.72 0 0 1-.18.2c-.04.02-.1.06-.13.04a.26.26 0 0 1-.14-.17.42.42 0 0 1 .06-.26c.08-.16.18-.31.29-.46.08-.1.17-.17.24-.29.05-.07.1-.24.02-.26-.07-.03-.1.13-.17.17-.24.09-.46.21-.67.36-.1.13-.16.27-.2.42-.03.09 0 .21-.04.3-.02.02-.08.05-.1.03a.6.6 0 0 1-.17-.26.34.34 0 0 1 .01-.2c.01-.04 0-.06-.03-.05a.44.44 0 0 0-.2.24.57.57 0 0 0 .04.41c.11.2.24.38.37.55l.32.5c.09.14.13.3.1.47a.86.86 0 0 1-.24.43c-.02.01-.05.03-.07.02a4.89 4.89 0 0 0-.4-.34 1.6 1.6 0 0 0-.56-.23 3.66 3.66 0 0 0-.74 0c-.25 0-.51.04-.77.03-.21.01-.42-.01-.62-.08a.69.69 0 0 1-.36-.3.861.861 0 0 1-.08-.49.922.922 0 0 1 .12-.38.6.6 0 0 1 .24-.24.54.54 0 0 1 .38-.05c.06.02.12.06.18.1l.14.15.04-.01a.999.999 0 0 0-.07-.51 2.198 2.198 0 0 0-.23-.36c0-.03.08-.02.1-.03a.67.67 0 0 1 .58.32h.03a.798.798 0 0 0-.2-.59.669.669 0 0 0-.24-.21c-.06-.02.04-.07.1-.07.1-.01.21 0 .32.05l.1.07.06.05c.02.01.05-.02.04-.04a.489.489 0 0 0-.08-.18 4.975 4.975 0 0 0-.58-.5.835.835 0 0 1-.11-.22l-.08-.11c-.01-.05 0-.1.01-.14.06-.1.1-.12.22-.17l.26-.05c.03 0 .06.03.09.02.01 0 .02-.05-.02-.08a.64.64 0 0 0-.37-.11 1.078 1.078 0 0 0-.51.03.93.93 0 0 1-.4.12.56.56 0 0 1-.27-.05.221.221 0 0 1-.11-.15c0-.1.02-.21.07-.3.04-.07.1-.12.17-.15.05-.03.08-.05.08-.08s-.07-.02-.1-.01c-.15.03-.3.1-.43.17-.1.1-.2.2-.27.3a.169.169 0 0 1-.06.05c-.03.02-.06 0-.1.02l-.32.15c-.11.05-.2.13-.3.17a.942.942 0 0 1-.27.04c-.18-.01-.41-.01-.45.2a.1.1 0 0 0 .04.11l.1.05.1.04c.03 0 .06.01.07.03v.01l.01.01v.02a.089.089 0 0 1-.07.06c-.1.02-.2 0-.29-.04l-.02-.01c-.02-.01-.042-.014-.063-.01a.1.1 0 0 0-.057.03 7.222 7.222 0 0 1-.65.48.1.1 0 0 0-.02.05v.04c0 .04-.05.07-.08.08a.1.1 0 0 0-.08.09v.1a.12.12 0 0 0 .18.1 1.58 1.58 0 0 1 .2-.07l.04.02.01.01v.07a.767.767 0 0 1-.07.1c-.03.03-.05.08 0 .1a.18.18 0 0 0 .24 0 .42.42 0 0 0 .08-.12.2.2 0 0 1 .1-.1.718.718 0 0 1 .28-.06c.07 0 .13.01.2.05l.03.04V22a.634.634 0 0 1-.07.18l-.05.14-.06.14-.06.08c-.08.07-.2.14-.28.2-.14.15-.27.3-.38.47a.615.615 0 0 0-.07.17c-.03.15-.06.33-.23.23-.17-.09-.33-.2-.48-.3a.673.673 0 0 1-.15-.16c-.15-.22-.34-.02-.44.14-.18.29-.38.568-.6.83a.57.57 0 0 1-.1.17.37.37 0 0 0-.08.25.7.7 0 0 1-.13.42.38.38 0 0 0-.1.25v.25c0 .06.03.12.1.11.164-.055.316-.14.45-.25a.111.111 0 0 0 .035-.08.11.11 0 0 0-.035-.08l-.03-.02a.15.15 0 0 1-.06-.08v-.1c.01-.04.016-.08.02-.12a.16.16 0 0 1 .06-.1l.18-.15a.25.25 0 0 0 .07-.29.202.202 0 0 1-.02-.09l.06-.12.12-.16a.4.4 0 0 1 .24-.19.439.439 0 0 1 .36.12c.1.13.17.28.2.44.04.14.09.26.16.38a.182.182 0 0 0 .132.1.18.18 0 0 0 .158-.05h.01l.02-.01a.09.09 0 0 1 .1.04l.15.16c.07.04.01.1-.04.1l-.14-.01c-.04 0-.08 0-.11.02a2.833 2.833 0 0 1-.9.13.108.108 0 0 0-.08.06l-.04.11a.28.28 0 0 0 0 .2c.11.4.14.8.08 1.2a.501.501 0 0 0 .1.4c.03.05.08.08.13.1.02 0 .04 0 .06.02.04.04.06.1.05.15.01.08.04.15.1.21.07.1.15.17.26.22l.03.01a.1.1 0 0 0 .14-.05.9.9 0 0 0 .09-.41.15.15 0 0 0-.12-.14h-.02a.1.1 0 0 0-.06.02h-.01a.131.131 0 0 1-.04.01h-.05l-.02-.01a.211.211 0 0 1-.08-.1.39.39 0 0 1-.01-.25l.01-.07a.3.3 0 0 0 0-.12.368.368 0 0 0-.02-.11c-.03-.07-.04-.1-.1-.11l-.01-.01a.254.254 0 0 1-.07-.04h-.01l-.01-.04v-.03c.03-.18.04-.38.02-.56 0-.07-.01-.13.04-.18.13-.1.35-.02.49.03.17.06.36.11.54.14.31.03.62-.05.86-.23.03-.02.03-.03.06-.01.1.06.16.13.26.19.22.14.47.26.72.33.35.04.7.03 1.04 0 .1 0 .18.02.26.05l.02.01.01.03c0 .13-.06.25-.06.38.01.07.04.13.08.2l.08.19.04.06a.69.69 0 0 1 .01.86c-.13.13-.27.24-.42.34a.95.95 0 0 1-.49.2.5.5 0 0 0-.31.13c-.1.1-.21.19-.34.26a.168.168 0 0 0-.1.11c-.06.14-.1.29-.13.44-.02.09.04.12.12.1.145-.021.286-.061.42-.12a.12.12 0 0 0 .04-.1l-.01-.05-.04-.11-.01-.04v-.02c0-.02 0-.03.02-.04a.3.3 0 0 1 .07-.07.18.18 0 0 1 .12-.03l.09.02a.35.35 0 0 0 .41-.15l.03-.05c.03-.05.07-.1.12-.13a5.157 5.157 0 0 1 1.1-.54.1.1 0 0 0 .03-.04l-.01-.14a2.173 2.173 0 0 1 0-.4c0-.08.03-.25.14-.25a.168.168 0 0 1 .12.07 1 1 0 0 0 .46.33l.16.06a.46.46 0 0 1 .26.475.3.3 0 0 1-.05.115c-.13.16-.25.34-.36.51a.768.768 0 0 1-.22.24c-.14.091-.273.191-.4.3a.781.781 0 0 0-.24.26c-.07.18-.13.36-.18.55-.03.1.03.13.13.1.14-.03.27-.08.4-.16a.2.2 0 0 0 .05-.04.12.12 0 0 0 .03-.07c0-.05-.03-.1-.06-.14a.15.15 0 0 1-.02-.18.14.14 0 0 1 .09-.06l.3-.08a.62.62 0 0 0 .36-.18.199.199 0 0 0 .04-.08v-.03c.12-.42.4-.77.78-.98a.16.16 0 0 0 .08-.13c.01-.06 0-.11-.01-.16l-.29-.44a.841.841 0 0 1-.16-.39.96.96 0 0 1 .18-.54c.05-.11.15-.15.23-.25l.2-.31c.07-.14.12-.29.16-.44.04-.11-.02-.24 0-.35 0-.05.02-.09.05-.12a.42.42 0 0 1 .2-.16.429.429 0 0 1 .25.02c.15.04.24.1.4.14.08.01.16 0 .23-.02a.47.47 0 0 0 .22-.13c.02-.01.03-.06 0-.05Zm-5.2-2.42a.329.329 0 0 1-.16.28.33.33 0 0 1-.16.03c-.06 0-.08-.09-.08-.22v-.94a2.275 2.275 0 0 0-.19-.62c-.01-.04-.04-.08-.06-.11a.298.298 0 0 0-.06-.09c-.04-.03-.1-.05-.13-.1-.02 0 0-.02.01-.04a.4.4 0 0 1 .47.06.95.95 0 0 1 .35.68c.05.35.05.71 0 1.07h.01Zm-15.85 7.4h10.6a5.86 5.86 0 0 1-1.57-3.91v-.17H8.05c.05 1.38.27 2.75.63 4.08h.01Zm15.32 5.12H10.83a20.942 20.942 0 0 0 2.8 4.08h10.38v-4.08Zm16.98-18.28h-9.72v3.59h9.66l.06-3.6v.01Zm.11-6.05a41.939 41.939 0 0 0-12.97-3c-1.177-.1-2.358-.15-3.54-.15v3.99h16.5l.01-.84Zm-10.43 5.92H18.25c-.02 0-.03 0-.03.03l.02 9.22a5.739 5.739 0 0 0 2.06 4.3 6.55 6.55 0 0 0 4.2 1.6 6.46 6.46 0 0 0 5.94-4.12c.16-.46.25-.94.26-1.43v-9.59a.03.03 0 0 0-.02-.01h-.01Zm-.27 9.53c0 .46-.09.93-.25 1.37a6.119 6.119 0 0 1-5.66 3.97 6.21 6.21 0 0 1-5.44-3.4 5.542 5.542 0 0 1-.53-2.29l-.02-8.86c0-.02 0-.03.03-.03h11.86a.03.03 0 0 1 .03.02v9.22h-.02Zm-3.59 5.7c-.41.15-.85.27-1.29.33l.04.1a.24.24 0 0 0 .24.17c.14.02.25-.08.35-.32.02-.02.08-.04.1-.02.1.18.36.35.54.26a.298.298 0 0 0 .08-.42l-.06-.1Z" fill="#000"/><path d="M24.02 39.6h-9.9a23.955 23.955 0 0 0 4.5 3.82c1.17.72 2.39 1.34 3.65 1.87.42.18.78.35 1.11.46l.64.22V39.6Zm0-7.4a7.26 7.26 0 0 1-4.26-1.85H8.83c.08.23.15.47.24.7.41 1.18.9 2.31 1.49 3.41h13.46V32.2Zm16.9-11.3h-9.63v4.21h9.55c.04-1.23.07-2.68.1-4.22l-.02.01Zm.18-8.87H24.59v4.09h16.42l.08-4.1.01.01Z" fill="#B12B28"/><defs><linearGradient id="porsche__a" x1="7" y1="24.37" x2="41.87" y2="24.37" gradientUnits="userSpaceOnUse"><stop stop-color="#E1BE78"/><stop offset="1" stop-color="#E3AB36"/></linearGradient><linearGradient id="porsche__b" x1="4.4" y1="9.81" x2="41.08" y2="30.99" gradientUnits="userSpaceOnUse"><stop stop-color="#E1BE78"/><stop offset=".34" stop-color="#FFFAD1"/><stop offset=".75" stop-color="#C69632"/><stop offset=".99" stop-color="#FCDC99"/></linearGradient></defs></svg>